REM DIRINDEX 1\2,1\3,1\4,1\6,1\5\7,1\5\8
REM DIRNAME cjc114,folder01,folder02,folder03,folder04,folder05,folder06,folder07
TITLE ""
FILE "DB4500_5th_6C_44.mp3" MP3
  TRACK 01 AUDIO
    TITLE "0:"
    INDEX 01 00:00:00
  TRACK 02 AUDIO
    TITLE "2:cjc114_4854"
    INDEX 01 00:00:03
  TRACK 03 AUDIO
    TITLE "0:"
    INDEX 01 00:00:74
  TRACK 04 AUDIO
    TITLE "3:cjc114_4855"
    INDEX 01 00:01:22
  TRACK 05 AUDIO
    TITLE "0:"
    INDEX 01 00:02:45
  TRACK 06 AUDIO
    TITLE "4:cjc114_4856"
    INDEX 01 00:02:69
  TRACK 07 AUDIO
    TITLE "0:"
    INDEX 01 00:06:22
  TRACK 08 AUDIO
    TITLE "2:cjc114_4857"
    INDEX 01 00:06:71
  TRACK 09 AUDIO
    TITLE "0:"
    INDEX 01 00:07:74
  TRACK 10 AUDIO
    TITLE "3:cjc114_4858"
    INDEX 01 00:08:19
  TRACK 11 AUDIO
    TITLE "0:"
    INDEX 01 00:09:42
  TRACK 12 AUDIO
    TITLE "4:cjc114_4859"
    INDEX 01 00:09:63
  TRACK 13 AUDIO
    TITLE "0:"
    INDEX 01 00:13:08
  TRACK 14 AUDIO
    TITLE "2:cjc114_4860"
    INDEX 01 00:13:57
  TRACK 15 AUDIO
    TITLE "0:"
    INDEX 01 00:14:62
  TRACK 16 AUDIO
    TITLE "3:cjc114_4861"
    INDEX 01 00:15:11
  TRACK 17 AUDIO
    TITLE "0:"
    INDEX 01 00:16:32
  TRACK 18 AUDIO
    TITLE "4:cjc114_4862"
    INDEX 01 00:16:51
  TRACK 19 AUDIO
    TITLE "0:"
    INDEX 01 00:19:44
  TRACK 20 AUDIO
    TITLE "2:cjc114_4863"
    INDEX 01 00:20:16
  TRACK 21 AUDIO
    TITLE "0:"
    INDEX 01 00:21:23
  TRACK 22 AUDIO
    TITLE "3:cjc114_4864"
    INDEX 01 00:21:47
  TRACK 23 AUDIO
    TITLE "0:"
    INDEX 01 00:22:38
  TRACK 24 AUDIO
    TITLE "4:cjc114_4865"
    INDEX 01 00:22:60
  TRACK 25 AUDIO
    TITLE "0:"
    INDEX 01 00:27:39
  TRACK 26 AUDIO
    TITLE "2:cjc114_4866"
    INDEX 01 00:28:02
  TRACK 27 AUDIO
    TITLE "0:"
    INDEX 01 00:29:21
  TRACK 28 AUDIO
    TITLE "3:cjc114_4867"
    INDEX 01 00:29:38
  TRACK 29 AUDIO
    TITLE "0:"
    INDEX 01 00:30:38
  TRACK 30 AUDIO
    TITLE "4:cjc114_4868"
    INDEX 01 00:30:54
  TRACK 31 AUDIO
    TITLE "0:"
    INDEX 01 00:34:02
  TRACK 32 AUDIO
    TITLE "2:cjc114_4869"
    INDEX 01 00:34:45
  TRACK 33 AUDIO
    TITLE "0:"
    INDEX 01 00:35:59
  TRACK 34 AUDIO
    TITLE "3:cjc114_4870"
    INDEX 01 00:36:01
  TRACK 35 AUDIO
    TITLE "0:"
    INDEX 01 00:37:32
  TRACK 36 AUDIO
    TITLE "4:cjc114_4871"
    INDEX 01 00:37:50
  TRACK 37 AUDIO
    TITLE "0:"
    INDEX 01 00:41:65
  TRACK 38 AUDIO
    TITLE "2:cjc114_4872"
    INDEX 01 00:42:35
  TRACK 39 AUDIO
    TITLE "0:"
    INDEX 01 00:43:27
  TRACK 40 AUDIO
    TITLE "3:cjc114_4873"
    INDEX 01 00:43:46
  TRACK 41 AUDIO
    TITLE "0:"
    INDEX 01 00:44:60
  TRACK 42 AUDIO
    TITLE "4:cjc114_4874"
    INDEX 01 00:45:02
  TRACK 43 AUDIO
    TITLE "0:"
    INDEX 01 00:47:34
  TRACK 44 AUDIO
    TITLE "2:cjc114_4875"
    INDEX 01 00:48:02
  TRACK 45 AUDIO
    TITLE "0:"
    INDEX 01 00:49:16
  TRACK 46 AUDIO
    TITLE "3:cjc114_4876"
    INDEX 01 00:49:39
  TRACK 47 AUDIO
    TITLE "0:"
    INDEX 01 00:50:48
  TRACK 48 AUDIO
    TITLE "4:cjc114_4877"
    INDEX 01 00:50:70
  TRACK 49 AUDIO
    TITLE "0:"
    INDEX 01 00:54:32
  TRACK 50 AUDIO
    TITLE "2:cjc114_4878"
    INDEX 01 00:55:03
  TRACK 51 AUDIO
    TITLE "0:"
    INDEX 01 00:56:06
  TRACK 52 AUDIO
    TITLE "3:cjc114_4879"
    INDEX 01 00:56:25
  TRACK 53 AUDIO
    TITLE "0:"
    INDEX 01 00:57:33
  TRACK 54 AUDIO
    TITLE "4:cjc114_4880"
    INDEX 01 00:57:50
  TRACK 55 AUDIO
    TITLE "0:"
    INDEX 01 01:01:44
  TRACK 56 AUDIO
    TITLE "2:cjc114_4881"
    INDEX 01 01:02:12
  TRACK 57 AUDIO
    TITLE "0:"
    INDEX 01 01:03:20
  TRACK 58 AUDIO
    TITLE "3:cjc114_4882"
    INDEX 01 01:03:41
  TRACK 59 AUDIO
    TITLE "0:"
    INDEX 01 01:04:62
  TRACK 60 AUDIO
    TITLE "4:cjc114_4883"
    INDEX 01 01:05:05
  TRACK 61 AUDIO
    TITLE "0:"
    INDEX 01 01:08:09
  TRACK 62 AUDIO
    TITLE "2:cjc114_4884"
    INDEX 01 01:08:48
  TRACK 63 AUDIO
    TITLE "0:"
    INDEX 01 01:09:54
  TRACK 64 AUDIO
    TITLE "3:cjc114_4885"
    INDEX 01 01:10:00
  TRACK 65 AUDIO
    TITLE "0:"
    INDEX 01 01:11:00
  TRACK 66 AUDIO
    TITLE "4:cjc114_4886"
    INDEX 01 01:11:21
  TRACK 67 AUDIO
    TITLE "0:"
    INDEX 01 01:15:21
  TRACK 68 AUDIO
    TITLE "2:cjc114_4887"
    INDEX 01 01:15:64
  TRACK 69 AUDIO
    TITLE "0:"
    INDEX 01 01:18:35
  TRACK 70 AUDIO
    TITLE "3:cjc114_4888"
    INDEX 01 01:18:58
  TRACK 71 AUDIO
    TITLE "0:"
    INDEX 01 01:19:54
  TRACK 72 AUDIO
    TITLE "4:cjc114_4889"
    INDEX 01 01:19:72
  TRACK 73 AUDIO
    TITLE "0:"
    INDEX 01 01:24:22
  TRACK 74 AUDIO
    TITLE "2:cjc114_4890"
    INDEX 01 01:24:63
  TRACK 75 AUDIO
    TITLE "0:"
    INDEX 01 01:26:01
  TRACK 76 AUDIO
    TITLE "3:cjc114_4891"
    INDEX 01 01:26:19
  TRACK 77 AUDIO
    TITLE "0:"
    INDEX 01 01:27:48
  TRACK 78 AUDIO
    TITLE "4:cjc114_4892"
    INDEX 01 01:27:71
  TRACK 79 AUDIO
    TITLE "0:"
    INDEX 01 01:31:73
  TRACK 80 AUDIO
    TITLE "2:cjc114_4893"
    INDEX 01 01:32:51
  TRACK 81 AUDIO
    TITLE "0:"
    INDEX 01 01:33:74
  TRACK 82 AUDIO
    TITLE "3:cjc114_4894"
    INDEX 01 01:34:16
  TRACK 83 AUDIO
    TITLE "0:"
    INDEX 01 01:35:59
  TRACK 84 AUDIO
    TITLE "4:cjc114_4895"
    INDEX 01 01:36:05
  TRACK 85 AUDIO
    TITLE "0:"
    INDEX 01 01:39:31
